<svg width="3922" height="734" viewBox="0 0 3922 734" fill="none" xmlns="http://www.w3.org/2000/svg">
<path d="M1828.29 180.581C1817.12 183.868 1807.26 190.66 1795.21 203.369C1788.41 210.6 1592.09 485.81 1592.09 488.001C1592.09 488.44 1617.07 488.878 1647.52 488.878H1702.74L1773.95 388.084C1813.17 332.648 1845.82 287.51 1846.7 287.948C1847.58 288.167 1863.13 310.517 1881.54 337.688C1899.73 364.858 1918.57 392.248 1923.39 398.383L1931.94 409.996H1866.42H1801.12L1773.73 447.684C1758.83 468.281 1746.34 486.029 1745.91 487.125C1745.47 488.001 1824.57 488.878 1921.64 488.878C2018.71 488.878 2098.25 488.44 2098.25 488.001C2098.25 485.372 1903.89 205.999 1897.32 199.425C1880.01 181.238 1852.4 173.788 1828.29 180.581Z" fill="black"/>
<path d="M2760.42 181.896C2754.06 184.087 2744.2 189.784 2738.72 194.604C2731.71 200.521 2696 248.945 2628.07 344.48C2573.07 422.047 2527.93 486.249 2527.71 487.125C2527.71 488.221 2552.25 488.878 2582.49 488.878H2637.27L2644.06 479.456C2647.79 474.416 2680 428.84 2715.72 378.443L2780.57 286.633L2785.61 292.988C2788.46 296.494 2807.31 323.883 2827.68 354.121L2864.93 408.9L2800.08 409.996L2735.44 411.092L2707.39 449.437L2679.34 487.782L2767.87 488.44C2816.51 488.659 2896.27 488.659 2944.91 488.44L3033.65 487.782L2935.27 345.357C2859.68 235.798 2834.48 200.74 2825.93 193.728C2807.31 178.171 2783.42 174.008 2760.42 181.896Z" fill="black"/>
<path d="M1326.96 184.525C1270.86 189.346 1220.47 214.544 1194.39 250.917C1162.62 295.617 1158.24 347.329 1182.56 396.849C1190.01 411.749 1195.49 419.199 1210.6 434.318C1231.42 455.134 1249.39 466.309 1277.65 476.388C1309.43 487.563 1325.86 488.878 1449.22 488.878H1561.41V393.562V298.247H1463.03H1364.86L1337.04 331.552L1309.21 365.077L1388.31 365.734L1467.19 366.173V388.084V409.996H1402.11C1332.87 409.996 1319.07 408.462 1300.44 399.04C1287.51 392.248 1274.81 379.977 1268.23 367.487C1263.19 357.846 1262.32 353.464 1262.32 337.688C1262.32 322.349 1263.19 317.091 1267.58 308.326C1277.44 288.167 1297.16 272.829 1321.48 266.694C1332.21 263.845 1349.96 263.188 1421.39 263.188H1508.17L1537.53 225.062C1553.52 204.026 1567.11 185.621 1567.55 184.525C1568.42 181.677 1359.6 181.677 1326.96 184.525Z" fill="black"/>
<path d="M2233 184.306C2163.1 190.222 2126.73 221.994 2126.73 277.431C2126.73 313.804 2142.29 339.002 2173.84 353.026C2198.6 364.42 2203.64 364.858 2318.46 365.954C2399.31 367.049 2426.92 367.926 2430.64 370.117C2433.27 371.651 2436.56 376.69 2438.09 381.292C2441.38 392.248 2437.44 400.793 2426.92 406.052C2419.91 409.558 2408.95 409.996 2297.64 409.996H2175.81L2145.79 448.78L2115.99 487.782L2262.14 488.44C2355.71 488.878 2415.74 488.221 2429.11 486.687C2484.11 480.552 2516.98 457.763 2526.84 418.98C2531.88 398.821 2530.34 366.611 2523.55 352.587C2513.69 332.21 2494.85 318.405 2465.27 310.079C2453.87 306.792 2436.78 306.135 2341.46 305.039C2259.3 303.944 2229.5 303.067 2225.99 301.095C2219.85 297.589 2216.13 285.976 2218.32 277.431C2219.42 273.048 2222.7 269.542 2227.74 267.132C2234.54 263.626 2245.05 263.188 2348.26 263.188H2461.32L2490.68 224.843C2506.9 203.588 2520.48 185.402 2520.7 184.306C2521.58 181.677 2262.8 181.896 2233 184.306Z" fill="black"/>
<path d="M3115.38 200.959C3107.06 211.696 3093.03 229.225 3084.49 240.181C3075.94 250.917 3068.93 260.559 3068.93 261.435C3068.93 262.531 3131.38 263.188 3207.63 263.188C3337.57 263.188 3346.55 263.626 3354.88 267.351C3370.22 274.363 3374.6 281.156 3374.6 297.151C3374.6 309.641 3373.94 311.832 3368.03 318.186C3354.22 332.648 3360.58 332.21 3206.54 332.867L3066.74 333.524V411.092V488.878H3113.85H3160.96V449.437V409.996H3252.77C3324.42 409.996 3348.52 409.339 3363.42 406.709C3416.67 397.287 3453.92 369.898 3465.75 330.676C3469.48 318.405 3470.35 311.394 3469.48 292.111C3468.82 271.295 3467.94 266.913 3462.03 254.423C3449.32 227.91 3429.6 209.724 3400.89 197.672C3369.34 184.525 3363.21 183.868 3241.81 182.772L3130.72 181.677L3115.38 200.959Z" fill="black"/>
<path d="M3549.89 221.994L3518.12 262.092L3660.11 263.188C3796.84 264.284 3802.1 264.503 3809.33 268.666C3820.06 275.02 3825.32 283.347 3826.42 295.398C3828.17 313.147 3815.68 327.17 3794.43 331.114C3787.41 332.429 3730.22 333.305 3650.47 333.305H3518.12V411.092V488.878H3565.23H3612.34V449.656V410.215L3712.7 409.558C3826.2 408.681 3829.7 408.024 3864.32 390.276C3886.45 378.662 3901.57 363.543 3911.87 342.727C3919.1 328.046 3919.98 324.541 3920.86 304.163C3921.95 278.964 3918.88 263.845 3908.59 245.001C3900.48 229.663 3878.35 209.943 3859.5 200.959C3824.88 184.525 3802.31 182.115 3674.13 182.115H3581.66L3549.89 221.994Z" fill="black"/>
<path d="M603.366 0.656047C559.666 4.15605 526.066 11.656 488.866 26.256C473.466 32.356 445.166 46.656 430.566 55.756C375.266 90.556 330.666 138.956 299.466 197.956C290.866 214.356 275.966 250.356 277.266 251.756C277.566 252.056 282.466 250.856 288.066 249.156C301.166 245.156 319.466 240.756 332.666 238.356L342.966 236.456L349.666 223.456C372.466 179.156 408.666 138.456 450.366 110.056C533.066 53.756 639.266 40.756 732.566 75.556C775.066 91.356 811.866 115.056 844.466 147.456C882.066 184.956 907.966 228.656 922.966 279.756C936.866 327.356 939.166 379.456 929.466 427.256L927.066 438.956L932.566 451.656C942.966 476.056 953.866 512.356 953.866 522.856C953.866 524.556 954.266 525.956 954.766 525.956C955.966 525.956 966.966 499.756 972.266 484.156C999.866 403.256 997.766 313.256 966.366 232.956C961.366 220.156 948.366 193.256 941.266 181.256C885.666 86.256 786.866 19.656 678.366 4.05605C653.666 0.456047 622.566 -0.943953 603.366 0.656047Z" fill="black"/>
<path d="M564.966 157.056C550.366 160.856 514.766 178.356 491.566 193.256C484.066 198.056 483.766 198.356 484.366 201.356C484.766 203.056 486.466 207.356 488.166 210.956C489.866 214.556 491.266 217.756 491.266 218.156C491.366 218.556 489.166 220.356 486.366 222.056C482.566 224.456 477.366 226.256 465.366 229.056C456.566 231.156 447.366 232.956 444.866 232.956C438.866 233.056 432.366 236.056 426.866 241.456L422.366 245.756L401.366 248.956C323.866 260.656 289.266 270.456 243.866 293.556C207.266 312.056 159.966 341.456 103.366 380.756C83.866 394.356 36.866 427.656 35.566 428.956C35.166 429.356 37.366 430.656 40.566 431.756C49.866 435.156 58.566 440.856 67.666 449.356C81.466 462.456 90.666 477.556 93.866 492.656L95.366 499.956L120.366 481.356C181.566 435.756 270.466 374.156 287.466 365.656C320.366 349.156 357.366 338.856 419.066 328.956L438.766 325.756L445.266 328.356C452.766 331.356 460.066 331.756 465.666 329.356C467.666 328.556 475.566 326.356 483.266 324.456C496.866 321.256 497.266 321.156 501.566 322.756C505.466 324.256 505.966 324.756 505.566 326.956C505.266 328.356 504.266 335.456 503.266 342.656C500.966 359.456 501.266 360.356 509.866 364.756L516.366 368.056L516.966 392.256C517.466 410.156 518.166 419.456 519.766 427.956C522.466 442.756 525.466 454.256 527.966 459.156C530.466 464.056 536.666 470.956 538.466 470.956C539.266 470.956 573.566 501.156 614.666 538.156C655.766 575.056 692.866 608.456 697.166 612.356C704.366 618.756 705.366 619.356 710.166 619.756C715.866 620.156 736.266 615.756 738.666 613.456C741.266 611.056 743.166 591.556 743.266 566.956C743.366 547.056 742.966 541.256 741.066 529.156L738.766 514.856L742.266 501.156C746.866 483.056 750.166 465.556 753.366 442.456C756.966 416.356 756.366 417.956 762.366 416.356C765.166 415.556 768.366 414.756 769.566 414.356C771.466 413.856 774.766 416.656 791.266 432.956L810.666 452.056L809.166 455.956C806.366 462.956 810.866 469.456 818.266 469.456C822.066 469.456 824.466 467.856 848.866 449.556C863.466 438.656 876.566 428.556 878.066 427.156C886.066 419.756 878.966 407.156 868.466 410.056L864.766 411.056L852.566 398.256C845.766 391.256 833.466 378.356 825.166 369.656L810.066 353.756L809.466 348.056C808.866 342.756 804.666 332.456 801.666 328.956C800.566 327.656 779.866 312.256 703.966 256.356C703.766 256.156 704.366 252.956 705.266 249.256C707.966 237.656 708.966 229.956 709.466 214.456C709.866 204.656 709.666 198.456 708.966 196.656C706.666 190.856 683.866 178.956 657.266 169.656C620.166 156.756 584.566 151.856 564.966 157.056ZM547.866 170.056C544.866 171.756 538.766 175.256 534.366 177.656C521.166 185.056 504.466 196.556 500.566 200.856C497.066 204.756 496.266 207.156 496.766 212.656C496.866 213.956 496.666 214.956 496.466 214.956C495.766 214.956 492.966 209.556 491.266 204.756L489.966 200.856L500.666 193.856C506.566 189.956 520.366 182.356 531.266 176.856C550.666 167.256 559.066 163.756 547.866 170.056ZM572.266 191.656C573.866 196.856 581.866 249.156 581.866 254.456C581.866 255.756 592.466 270.956 594.366 272.156C594.866 272.556 598.766 274.156 602.866 275.556C618.166 281.056 651.866 294.256 651.466 294.656C651.266 294.856 635.666 292.756 616.866 289.956L582.666 284.956L571.566 288.556C565.366 290.556 559.666 292.456 558.866 292.756C558.066 293.056 558.766 291.756 560.466 289.856C567.366 282.456 567.966 278.756 564.866 264.456C558.166 234.056 546.366 216.956 529.266 212.556L524.666 211.356L534.966 206.556C562.766 193.556 570.466 190.056 571.066 189.956C571.466 189.956 571.966 190.756 572.266 191.656ZM520.666 223.156C530.466 227.756 540.566 240.856 544.466 254.056C546.666 261.456 547.866 276.856 546.766 285.056C546.266 289.056 545.666 292.456 545.466 292.656C545.266 292.856 544.866 288.156 544.566 282.256C543.866 267.856 542.066 262.356 535.866 255.956C533.066 253.156 529.766 248.956 528.366 246.656C521.966 235.656 511.166 227.056 501.066 224.856L495.366 223.656L499.366 222.356C505.966 220.256 515.166 220.656 520.666 223.156ZM495.466 230.656C511.466 238.456 522.966 261.456 521.466 282.456C521.166 286.856 520.466 291.756 519.966 293.456C519.166 295.956 519.066 295.056 518.966 288.656C518.866 284.356 518.166 277.656 517.266 273.656C515.166 264.656 510.066 252.956 508.166 252.956C507.366 252.956 501.066 254.256 494.166 255.956C487.266 257.556 481.266 258.956 480.766 258.956C480.266 258.956 479.166 257.456 478.266 255.656C477.366 253.956 475.066 250.556 473.266 248.256C470.266 244.656 470.066 244.056 471.566 243.556C472.566 243.256 478.466 241.856 484.766 240.356L496.166 237.756L493.066 235.756C490.066 233.856 490.066 233.856 477.566 237.056L464.966 240.156L461.666 237.856C459.466 236.256 458.866 235.356 459.866 235.156C461.866 234.756 489.266 228.256 489.666 228.056C489.866 228.056 492.466 229.156 495.466 230.656ZM442.966 253.856C448.966 258.156 451.366 261.156 455.066 268.456C460.766 279.756 461.366 294.956 456.566 305.156L454.066 310.456L453.966 302.956C453.766 287.156 449.266 277.456 439.866 272.656L434.366 269.756L419.866 270.456C366.366 272.756 299.466 286.556 237.866 307.856C231.566 309.956 226.166 311.656 225.966 311.456C225.366 310.756 265.266 291.456 275.866 287.256C291.266 281.256 305.966 276.456 319.966 272.956C347.066 266.056 425.466 250.556 434.966 250.056C436.466 249.956 439.666 251.556 442.966 253.856ZM557.766 312.656C564.466 325.956 587.666 344.656 623.866 365.956L636.166 373.256L633.766 375.056C631.266 376.956 623.666 378.956 619.066 378.956C617.266 378.956 604.366 371.256 579.866 355.556C559.766 342.656 542.566 331.556 541.566 330.856C539.866 329.556 539.866 329.156 541.866 322.456C544.266 314.856 547.266 308.956 551.566 303.856L554.366 300.656L555.066 304.656C555.466 306.956 556.666 310.556 557.766 312.656ZM531.866 353.956C535.666 418.656 548.366 451.656 575.466 467.556C576.566 468.256 570.766 467.856 560.366 466.756C550.166 465.556 542.466 464.256 541.066 463.356C534.766 459.256 532.366 451.756 528.766 424.356C525.066 395.456 525.066 365.856 529.066 340.456C530.466 330.856 530.466 330.756 531.866 353.956ZM698.866 379.756L738.366 407.556L738.066 414.056C737.366 430.456 731.266 457.256 723.266 478.656C716.066 498.156 698.866 530.456 692.766 536.156C689.266 539.556 683.866 539.856 679.366 537.156C677.066 535.756 627.766 489.856 612.166 474.556C610.466 472.856 608.866 467.256 604.366 446.056L598.766 419.556L604.766 407.556C608.066 400.856 612.566 392.656 614.766 389.156C618.066 384.056 619.266 382.956 621.566 382.956C622.966 382.956 626.966 382.156 630.266 381.256C635.666 379.856 637.266 378.656 643.866 372.056C647.966 367.856 652.966 361.656 654.866 358.256C656.766 354.856 658.566 351.956 658.866 351.956C659.166 351.956 677.166 364.456 698.866 379.756Z" fill="black"/>
<path d="M310.066 383.456C299.966 387.856 267.566 409.756 262.966 415.356C259.666 419.256 270.666 466.056 281.666 495.456C320.266 598.556 402.766 678.256 507.866 714.156C595.466 744.056 691.666 739.056 777.966 699.956C805.166 687.656 837.166 667.656 858.366 649.556C891.266 621.556 904.166 607.456 913.566 589.356C923.266 570.456 926.366 556.556 925.566 533.956C924.766 510.856 919.966 493.656 907.266 468.856C901.966 458.556 886.866 434.656 884.766 433.356C883.766 432.756 830.866 471.856 830.866 473.156C830.866 473.556 834.666 479.156 839.266 485.656C849.766 500.256 855.966 511.056 859.466 521.456C861.966 528.456 862.266 530.956 862.366 541.456C862.366 551.956 862.066 554.356 859.766 560.656C852.166 581.356 830.166 603.456 792.666 627.956C779.566 636.556 752.466 650.456 737.066 656.356C716.666 664.256 690.666 670.956 666.366 674.656C649.166 677.156 600.566 677.156 583.366 674.656C512.166 663.956 451.766 633.456 402.766 583.356C351.566 530.856 321.566 464.656 315.266 390.156C314.966 385.656 314.366 381.956 313.966 381.956C313.666 382.056 311.866 382.656 310.066 383.456Z" fill="black"/>
<path d="M12.8659 437.256C7.86589 438.856 2.46589 444.756 0.965891 450.256C-0.834109 456.556 -0.0341087 468.856 2.66589 476.356C6.36589 486.556 12.6659 495.956 22.2659 505.556C36.4659 519.756 49.2659 526.256 63.4659 526.356C70.7659 526.456 71.9659 526.156 76.3659 523.456C83.5659 519.056 86.3659 513.056 86.2659 502.456C85.9659 472.456 50.8659 435.756 22.8659 436.056C19.2659 436.156 14.7659 436.656 12.8659 437.256ZM18.5659 446.956C17.1659 448.056 15.2659 450.956 14.2659 453.456C8.26589 469.356 24.5659 498.156 46.1659 509.556C52.7659 513.056 54.0659 513.456 61.1659 513.456C68.9659 513.456 69.0659 513.456 72.4659 509.756C76.2659 505.556 76.7659 506.456 73.9659 512.556C71.0659 519.056 66.7659 521.456 58.2659 521.456C52.1659 521.456 50.2659 520.956 43.3659 517.556C37.0659 514.456 33.4659 511.656 26.3659 504.556C16.6659 494.756 11.9659 487.756 8.16589 477.156C4.96589 468.456 4.76589 458.756 7.56589 453.256C9.86589 448.856 15.0659 444.956 18.6659 444.956H21.1659L18.5659 446.956Z" fill="black"/>
<path d="M86.0658 548.756C87.7658 554.756 86.2658 566.456 82.2658 579.456C74.6658 604.356 73.6658 608.756 74.0658 618.456C74.3658 626.156 74.8658 628.256 77.1658 632.156C84.8658 645.256 98.9658 650.756 113.866 646.356C120.366 644.456 123.066 642.856 128.666 637.556C134.766 631.856 137.066 626.856 137.666 618.456C139.266 594.056 113.866 557.056 88.3658 546.356L85.0658 544.956L86.0658 548.756Z" fill="#CD2727"/>
</svg>
