<?xml version="1.0" standalone="no"?><svg xmlns="http://www.w3.org/2000/svg" viewBox="0 0 1440 320"><path fill="#73cebc" fill-opacity="1" d="M0,32L24,32C48,32,96,32,144,37.3C192,43,240,53,288,58.7C336,64,384,64,432,90.7C480,117,528,171,576,165.3C624,160,672,96,720,85.3C768,75,816,117,864,122.7C912,128,960,96,1008,101.3C1056,107,1104,149,1152,149.3C1200,149,1248,107,1296,122.7C1344,139,1392,213,1416,250.7L1440,288L1440,0L1416,0C1392,0,1344,0,1296,0C1248,0,1200,0,1152,0C1104,0,1056,0,1008,0C960,0,912,0,864,0C816,0,768,0,720,0C672,0,624,0,576,0C528,0,480,0,432,0C384,0,336,0,288,0C240,0,192,0,144,0C96,0,48,0,24,0L0,0Z"></path></svg>