<?xml version="1.0" encoding="UTF-8"?>
<!DOCTYPE svg PUBLIC "-//W3C//DTD SVG 1.1//EN" "http://www.w3.org/Graphics/SVG/1.1/DTD/svg11.dtd">
<!-- Creator: CorelDRAW X7 -->
<svg xmlns="http://www.w3.org/2000/svg" xml:space="preserve" width="700px" height="150px" version="1.1" style="shape-rendering:geometricPrecision; text-rendering:geometricPrecision; image-rendering:optimizeQuality; fill-rule:evenodd; clip-rule:evenodd"
viewBox="0 0 700 150"
 xmlns:xlink="http://www.w3.org/1999/xlink">
 <defs>
  <style type="text/css">
   <![CDATA[
    .fil0 {fill:#09D9C1}
    .fil1 {fill:#09D9C1;fill-rule:nonzero}
   ]]>
  </style>
 </defs>
 <g id="Layer_x0020_1">
  <metadata id="CorelCorpID_0Corel-Layer"/>
  <path class="fil0" d="M26 28l149 0 0 101 -20 0c0,-1 0,-2 0,-3 0,-30 -24,-54 -54,-54 -30,0 -54,24 -54,54 0,1 0,2 0,3l-21 0 0 -101zm109 101l-69 0c0,-1 0,-2 0,-3 0,-19 16,-34 35,-34 19,0 34,15 34,34 0,1 0,2 0,3z"/>
  <path class="fil1" d="M269 46l0 65 -12 0 0 -42 -18 30 -2 0 -18 -30 0 42 -12 0 0 -65 13 0 18 31 18 -31 13 0zm22 47c1,5 6,8 13,8 4,0 8,-1 10,-4l10 5c-5,7 -12,10 -20,10 -8,0 -14,-2 -19,-7 -4,-5 -7,-10 -7,-17 0,-7 3,-13 7,-18 5,-4 11,-7 18,-7 6,0 12,3 16,7 5,5 7,11 7,18 0,1 0,3 -1,5l-34 0zm0 -10l23 0c-1,-3 -2,-5 -4,-7 -2,-1 -5,-2 -7,-2 -4,0 -6,1 -8,3 -2,1 -4,3 -4,6zm68 -7l-10 0 0 19c0,2 0,3 1,4 1,0 2,1 3,1 2,0 4,0 6,0l0 11c-8,1 -14,0 -17,-3 -4,-2 -5,-7 -5,-13l0 -19 -8 0 0 -11 8 0 0 -10 12 -3 0 13 10 0 0 11zm42 -11l12 0 0 46 -12 0 0 -6c-4,5 -9,7 -15,7 -6,0 -11,-2 -16,-7 -4,-5 -6,-11 -6,-17 0,-7 2,-13 6,-18 5,-4 10,-7 16,-7 6,0 11,3 15,7l0 -5zm-22 32c2,2 5,4 9,4 4,0 7,-2 9,-4 3,-2 4,-6 4,-9 0,-4 -1,-7 -4,-10 -2,-2 -5,-3 -9,-3 -4,0 -7,1 -9,3 -2,3 -4,6 -4,10 0,3 2,7 4,9zm75 15c-9,0 -17,-3 -24,-10 -6,-6 -9,-14 -9,-24 0,-9 3,-17 9,-23 7,-7 15,-10 24,-10 6,0 12,1 17,4 4,3 8,7 11,11l-11 7c-1,-3 -4,-6 -7,-7 -3,-2 -6,-3 -10,-3 -6,0 -11,2 -15,6 -4,4 -5,9 -5,15 0,7 1,12 5,16 4,4 9,6 15,6 4,0 7,-1 10,-3 3,-2 6,-4 7,-7l11 7c-3,4 -7,8 -11,11 -5,3 -11,4 -17,4zm62 -49c5,0 9,2 12,5 3,4 5,9 5,14l0 29 -12 0 0 -27c0,-3 -1,-5 -2,-7 -2,-2 -4,-3 -7,-3 -3,0 -6,1 -7,3 -2,2 -3,5 -3,9l0 25 -12 0 0 -65 12 0 0 24c3,-4 7,-7 14,-7zm37 30c2,5 6,8 13,8 4,0 8,-1 10,-4l10 5c-5,7 -11,10 -20,10 -8,0 -14,-2 -19,-7 -4,-5 -6,-10 -6,-17 0,-7 2,-13 6,-18 5,-4 11,-7 18,-7 7,0 12,3 16,7 5,5 7,11 7,18 0,1 0,3 0,5l-35 0zm0 -10l23 0c-1,-3 -2,-5 -4,-7 -2,-1 -5,-2 -7,-2 -3,0 -6,1 -8,3 -2,1 -4,3 -4,6zm65 29c-7,0 -13,-2 -18,-7 -4,-5 -6,-10 -6,-17 0,-7 2,-13 6,-18 5,-4 11,-7 18,-7 4,0 8,2 12,4 4,2 6,5 8,8l-10 6c-1,-2 -2,-3 -4,-4 -2,-1 -4,-2 -6,-2 -4,0 -7,1 -9,4 -2,2 -4,5 -4,9 0,3 2,6 4,9 2,2 5,3 9,3 2,0 4,0 6,-1 2,-2 3,-3 4,-5l10 6c-2,4 -4,6 -8,9 -4,2 -8,3 -12,3zm69 -1l-14 0 -16 -21 0 21 -12 0 0 -65 12 0 0 39 15 -20 14 0 -18 22 19 24z"/>
 </g>
</svg>
